/* XPM */
static char * collectible_xpm[] = {
"64 64 14 1",
" 	c #388C46",
".	c #FFD73D",
"+	c #E7C337",
"@	c #FFDF64",
"#	c #FFE997",
"$	c #CCAC31",
"%	c #B99C2C",
"&	c #47B347",
"*	c #ECCF5F",
"=	c #CCB664",
"-	c #E2C75D",
";	c #FFE47D",
">	c #AF942A",
",	c #DBB934",
"                                                                ",
"                                                                ",
"                                                                ",
"                                                                ",
"                                                                ",
"                             .+...                              ",
"                         @@......+....                          ",
"                        ##..........+++                         ",
"                       @..$   ..$   +++%      &&&               ",
"                       *.=     +     ++%     &&&                ",
"                       *$             +%    &&&                 ",
"                       -$             +%   &&&                  ",
"                       +@=     +     ++%    &&                  ",
"                        **=   ++%   ++%     &&                  ",
"                         *+;;;.%+++++%       &                  ",
"                          *@;;=.$+++%        &                  ",
"                           .##;=.++%                            ",
"                             ##.%%                              ",
"                              #.%                               ",
"          &                   @+%                               ",
"         &&&         &        *+%                               ",
"        &&&&&      &&&        *+%                               ",
"          &&&&    &&&         *+%                               ",
"           &&&    &&          *+%                               ",
"            &&    &&          *+%                               ",
"            &&    &&          *+%                               ",
"             &                *+%                               ",
"                              *+%                               ",
"                              *+%                               ",
"                              #+%                               ",
"                              #;%                               ",
"                              #;%                               ",
"                              #;%                               ",
"                              #;$                               ",
"                              #;$                               ",
"                              #;$                               ",
"                              @;$                               ",
"                              #.$                               ",
"                              @.$                               ",
"                              *.$                               ",
"                              *+>                               ",
"                              *+%                               ",
"                             **++$                              ",
"                             *+++$                              ",
"                             *+++%              &&&             ",
"                             *+++%             &&& &            ",
"                             *+++%     &&&    &&&               ",
"                             ++,%%      &&&   &&                ",
"                             *+$$$       &&&  &&                ",
"                            @@....$       &&  &&                ",
"                            @;...$$        &  &&                ",
"                              .$$          &   &                ",
"                              *.$                               ",
"                              @.$                               ",
"                     &&&      @.$$.  ..                         ",
"                      &&&     @.$$.....                         ",
"                       &&&    @+$$...$                          ",
"                        &&    -.$$...$                          ",
"                        &&    @.$>$...,                         ",
"                         &    @;$$.  ..                         ",
"                              #;$                               ",
"                              ;;$                               ",
"                                                                ",
"                                                                "};
