/* XPM */
static char * player_xpm[] = {
"64 64 9 1",
" 	c #388C46",
".	c #299408",
"+	c #47B347",
"@	c #000000",
"#	c #5E5544",
"$	c #474136",
"%	c #940808",
"&	c #3E382C",
"*	c #29261F",
"                                                                ",
"                                                                ",
"                                                                ",
"                                                                ",
"                                                                ",
"                                                                ",
"                    ........        ........                    ",
"                    ........        ........                    ",
"                    ........        ........  +++               ",
"                    ........        ........ +++                ",
"                ....@@@@@@@@........@@@@@@@@....                ",
"                ....@@@@@@@@........@@@@@@@@....                ",
"                ....@@@@@@@@........@@@@@@@@....                ",
"                ....@@@@@@@@........@@@@@@@@....                ",
"            ....@@@@        @@@@@@@@        @@@@....            ",
"            ....@@@@        @@@@@@@@        @@@@....            ",
"            ....@@@@        @@@@@@@@        @@@@....            ",
"            ....@@@@        @@@@@@@@        @@@@....            ",
"                        @@@@@@@@@@@@@@@@                        ",
"          +             @@@@@@@@@@@@@@@@                        ",
"         +++         +  @@@@@@@@@@@@@@@@                        ",
"        +++++      +++  @@@@@@@@@@@@@@@@                        ",
"          ++++    ++@@@@################@@@@                    ",
"           +++    ++@@@@################@@@@                    ",
"            ++    ++@@@@################@@@@                    ",
"            ++    ++@@@@################@@@@                    ",
"    @@@@@@@@ +  @@@@####$$$$$$$$$$$$$$$$####@@@@    @@@@@@@@    ",
"    @@@@@@@@    @@@@####$$$$$$$$$$$$$$$$####@@@@    @@@@@@@@    ",
"    @@@@@@@@    @@@@####$$$$$$$$$$$$$$$$####@@@@    @@@@@@@@    ",
"    @@@@@@@@    @@@@####$$$$$$$$$$$$$$$$####@@@@    @@@@@@@@    ",
"@@@@%%%%%%%%@@@@####$$$$@@@@&&&&&&&&@@@@$$$$####@@@@%%%%%%%%@@@@",
"@@@@%%%%%%%%@@@@####$$$$@@@@&&&&&&&&@@@@$$$$####@@@@%%%%%%%%@@@@",
"@@@@%%%%%%%%@@@@####$$$$@@@@&&&&&&&&@@@@$$$$####@@@@%%%%%%%%@@@@",
"@@@@%%%%%%%%@@@@####$$$$@@@@&&&&&&&&@@@@$$$$####@@@@%%%%%%%%@@@@",
"@@@@%%%%@@@@@@@@$$$$&&&&@@@@&&&&&&&&@@@@&&&&$$$$@@@@@@@@%%%%@@@@",
"@@@@%%%%@@@@@@@@$$$$&&&&@@@@&&&&&&&&@@@@&&&&$$$$@@@@@@@@%%%%@@@@",
"@@@@%%%%@@@@@@@@$$$$&&&&@@@@&&&&&&&&@@@@&&&&$$$$@@@@@@@@%%%%@@@@",
"@@@@%%%%@@@@@@@@$$$$&&&&@@@@&&&&&&&&@@@@&&&&$$$$@@@@@@@@%%%%@@@@",
"    @@@@%%%%@@@@&&&&&&&&&&&&&&&&&&&&&&&&&&&&&&&&@@@@%%%%@@@@    ",
"    @@@@%%%%@@@@&&&&&&&&&&&&&&&&&&&&&&&&&&&&&&&&@@@@%%%%@@@@    ",
"    @@@@%%%%@@@@&&&&&&&&&&&&&&&&&&&&&&&&&&&&&&&&@@@@%%%%@@@@    ",
"    @@@@%%%%@@@@&&&&&&&&&&&&&&&&&&&&&&&&&&&&&&&&@@@@%%%%@@@@    ",
"        @@@@@@@@****&&&&&&&&@@@@@@@@&&&&&&&&****@@@@@@@@        ",
"        @@@@@@@@****&&&&&&&&@@@@@@@@&&&&&&&&****@@@@@@@@        ",
"        @@@@@@@@****&&&&&&&&@@@@@@@@&&&&&&&&****@@@@@@@@        ",
"        @@@@@@@@****&&&&&&&&@@@@@@@@&&&&&&&&****@@@@@@@@        ",
"                @@@@****&&&&&&&&&&&&&&&&****@@@@+               ",
"                @@@@****&&&&&&&&&&&&&&&&****@@@@                ",
"                @@@@****&&&&&&&&&&&&&&&&****@@@@                ",
"                @@@@****&&&&&&&&&&&&&&&&****@@@@                ",
"                @@@@********@@@@@@@@********@@@@                ",
"                @@@@********@@@@@@@@********@@@@                ",
"                @@@@********@@@@@@@@********@@@@                ",
"                @@@@********@@@@@@@@********@@@@                ",
"                    @@@@@@@@        @@@@@@@@                    ",
"                    @@@@@@@@        @@@@@@@@                    ",
"                    @@@@@@@@        @@@@@@@@                    ",
"                    @@@@@@@@        @@@@@@@@                    ",
"                        ++                                      ",
"                         +                                      ",
"                                                                ",
"                                                                ",
"                                                                ",
"                                                                "};
